<?xml version="1.0" encoding="utf-8"?>
<!-- Generator: Adobe Illustrator 18.0.0, SVG Export Plug-In . SVG Version: 6.00 Build 0)  -->
<!DOCTYPE svg PUBLIC "-//W3C//DTD SVG 1.1//EN" "http://www.w3.org/Graphics/SVG/1.1/DTD/svg11.dtd">
<svg version="1.1" id="Warstwa_2" xmlns="http://www.w3.org/2000/svg" xmlns:xlink="http://www.w3.org/1999/xlink" x="0px" y="0px"
	 width="200px" height="200px" viewBox="0 0 245.5 70.3" enable-background="new 0 0 245.5 70.3" xml:space="preserve">
<g>
	<rect x="201.3" y="15.6" fill="#724817" width="5.5" height="35.8"/>
	<path fill="#724817" d="M232.6,62.1"/>
	<path fill="#724817" d="M12.9,62.1"/>
	<path fill="#9F7F64" d="M17.9,62.2h1v8.1l-5-5.7v5.6h-1v-8.1l5,5.7V62.2z"/>
	<path fill="#9F7F64" d="M30.5,70.2l-0.8-1.8h-3.7l-0.8,1.8h-1.1l3.7-8.1l3.7,8.1H30.5z M29.3,67.5l-1.5-3.2l-1.4,3.2H29.3z"/>
	<path fill="#9F7F64" d="M38.7,63.1v7.1h-1v-7.1h-3v-0.9h6.9v0.9H38.7z"/>
	<path fill="#9F7F64" d="M53.4,67.2c0,2-1.2,3.1-3.2,3.1c-1.9,0-3.2-1.1-3.2-3.1v-5h1v5c0,1.5,0.8,2.2,2.2,2.2
		c1.4,0,2.2-0.8,2.2-2.2v-5h1V67.2z"/>
	<path fill="#9F7F64" d="M62.5,67h-2.1v3.2h-1v-8h3.1c1.4,0,2.4,0.8,2.4,2.4c0,1.2-0.6,1.9-1.5,2.2l1.9,3.4h-1.1L62.5,67z
		 M62.4,66.1c0.8,0,1.6-0.5,1.6-1.5c0-1-0.7-1.5-1.6-1.5h-2v3H62.4z"/>
	<path fill="#9F7F64" d="M76.7,70.2l-0.8-1.8h-3.7l-0.8,1.8h-1.1l3.7-8.1l3.7,8.1H76.7z M75.5,67.5l-1.5-3.2l-1.4,3.2H75.5z"/>
	<path fill="#9F7F64" d="M98.7,62.2h1v8.1l-5-5.7v5.6h-1v-8.1l5,5.7V62.2z"/>
	<path fill="#9F7F64" d="M105.9,70.2v-8h1v8H105.9z"/>
	<path fill="#9F7F64" d="M114,63.1v2.6h3.5v0.8H114v2.8h4v0.9H113v-8h4.9v0.9H114z"/>
	<path fill="#9F7F64" d="M134.1,62.2c2.2,0,3.8,1.5,3.8,4c0,2.5-1.7,4-3.9,4h-3.1v-8H134.1z M131.9,69.3h2.1c1.7,0,2.9-1.1,2.9-3.2
		s-1.2-3.2-2.9-3.2h-2.2V69.3z"/>
	<path fill="#9F7F64" d="M151.4,66.2c0,2.5-1.7,4.1-4,4.1c-2.3,0-4-1.6-4-4.1c0-2.5,1.7-4.1,4-4.1C149.6,62.1,151.4,63.6,151.4,66.2
		z M144.3,66.2c0,2,1.3,3.2,3,3.2c1.7,0,3-1.2,3-3.2c0-2-1.3-3.2-3-3.2C145.7,63,144.3,64.1,144.3,66.2z"/>
	<path fill="#9F7F64" d="M162.5,64.3l-1,0.1c-0.1-0.9-0.7-1.4-1.7-1.4c-1.1,0-1.7,0.6-1.7,1.4c0,0.9,0.7,1.2,1.9,1.4
		c1.7,0.4,2.7,0.8,2.7,2.2c0,1.6-1.3,2.3-2.8,2.3c-1.7,0-3-0.8-3-2.3l1-0.1c0.1,0.9,0.9,1.5,2,1.5c1.1,0,1.8-0.4,1.8-1.4
		c0-0.9-0.8-1.2-2.1-1.5c-1.4-0.3-2.6-0.7-2.6-2.2c0-1.2,0.9-2.3,2.7-2.3C161.3,62.1,162.4,62.9,162.5,64.3z"/>
	<path fill="#9F7F64" d="M174.5,70.2h-1.2l-2.9-3.8l-1,1.1v2.7h-1v-8h1V66l3.4-3.8h1.3l-3,3.4L174.5,70.2z"/>
	<path fill="#9F7F64" d="M186.9,66.2c0,2.5-1.7,4.1-4,4.1c-2.3,0-4-1.6-4-4.1c0-2.5,1.7-4.1,4-4.1C185.1,62.1,186.9,63.6,186.9,66.2
		z M179.8,66.2c0,2,1.3,3.2,3,3.2c1.7,0,3-1.2,3-3.2c0-2-1.3-3.2-3-3.2C181.2,63,179.8,64.1,179.8,66.2z"/>
	<path fill="#9F7F64" d="M197.7,62.2h1v8.1l-5-5.7v5.6h-1v-8.1l5,5.7V62.2z"/>
	<path fill="#9F7F64" d="M210.5,70.2l-0.8-1.8H206l-0.8,1.8h-1.1l3.7-8.1l3.7,8.1H210.5z M209.3,67.5l-1.5-3.2l-1.4,3.2H209.3z"/>
	<path fill="#9F7F64" d="M222.1,70.2h-5v-2.8l-1,0.3l-0.1-0.7l1.1-0.4v-4.3h1v4l1.2-0.4l0.1,0.7l-1.3,0.4v2.3h4V70.2z"/>
	<path fill="#9F7F64" d="M88,70.2h-5v-8h1v7.1h4V70.2z"/>
	<path fill="#9F7F64" d="M228.7,63.1v2.6h3.5v0.8h-3.5v2.8h4v0.9h-4.9v-8h4.9v0.9H228.7z"/>
	<circle fill="#9F7F64" cx="35.3" cy="45.9" r="5.2"/>
	<circle fill="#724817" cx="18.1" cy="45.9" r="5.2"/>
	<circle fill="#724817" cx="52.4" cy="45.9" r="5.2"/>
	<circle fill="#9F7F64" cx="18.1" cy="28.7" r="5.2"/>
	<circle fill="#724817" cx="18.1" cy="10.9" r="5.2"/>
	<circle fill="#724817" cx="35.3" cy="28.7" r="5.2"/>
	<circle fill="#9F7F64" cx="35.3" cy="10.9" r="5.2"/>
	<circle fill="#9F7F64" cx="52.4" cy="28.7" r="5.2"/>
	<circle fill="#724817" cx="204.1" cy="5.2" r="5.2"/>
	<circle fill="#724817" cx="52.4" cy="10.9" r="5.2"/>
	<path fill="#724817" d="M83.2,24.2c-3.2-1.4-5.1-2.5-5.1-5.4v-8.5c0-2.2,1.4-3.6,3.5-3.6c1.8,0,3.6,1.1,3.6,3.6v7h5.5v-7
		c0-5-3.7-8.5-9.1-8.5c-5.3,0-9,3.5-9,8.5v8.5c0,6.2,4.2,8.1,7.6,9.7c3.1,1.4,5.1,2.4,5.1,5.3v9.4c0,2.2-1.4,3.7-3.6,3.7
		c-1.8,0-3.6-1.1-3.6-3.7v-7h-5.5v7c0,5.1,3.6,8.6,9.1,8.6c5.4,0,9.1-3.5,9.1-8.6v-9.4C90.7,27.6,86.6,25.7,83.2,24.2z"/>
	<path fill="#724817" d="M104.9,15.4c-5.4,0-9.1,3.5-9.1,8.6v4.2h5.5V24c0-2.2,1.4-3.7,3.6-3.7c2.2,0,3.6,1.5,3.6,3.7v6l-4.3,0.5
		c-5.3,0.7-8.4,3.8-8.4,8.6v6.1c0,3.8,2.6,6.5,6.3,6.5c2.4,0,4.7-0.9,6.4-2.4v2.1h5.5V24C114,18.9,110.3,15.4,104.9,15.4z
		 M108.4,34.9V42c0,3-2.5,4.9-4.9,4.9c-1.1,0-2.3-0.6-2.3-2.5v-5.3c0-2.7,2-3.5,3.7-3.8L108.4,34.9z"/>
	<path fill="#724817" d="M130.8,15.4c-2.4,0-4.5,0.9-6.2,2.4v-2.2h-5.5v35.8h5.5V25.2c0-2.9,1.9-4.9,4.7-4.9c1.2,0,2.5,0.8,2.5,2.7
		v28.5h5.5V22.1C137.4,18.2,134.7,15.4,130.8,15.4z"/>
	<path fill="#724817" d="M154.4,16.1c-1.3-0.5-2.7-0.7-4.2-0.7c-5,0-8.5,3.5-8.5,8.6v21c0,3.9,2.7,6.7,6.5,6.7
		c2.3,0,4.5-0.9,6.2-2.4v2.1h5.5V0.3h-5.5V16.1z M150.8,20.3c1.7,0,3,0.6,3.6,0.9V42c0,2.9-1.9,4.9-4.7,4.9c-1.2,0-2.5-0.7-2.5-2.7
		V24C147.2,21.8,148.6,20.3,150.8,20.3z"/>
	<path fill="#724817" d="M189.8,15.4c-2.7,0-5.1,1.1-6.9,3.1c-1.1-2-3.1-3.1-5.8-3.1c-2.4,0-4.5,0.9-6.2,2.4v-2.2h-5.5v35.8h5.5
		V25.2c0-2.9,1.9-4.9,4.7-4.9c1.2,0,2.5,0.8,2.5,2.7v28.5h5.5V25.1c0-2.8,2-4.8,4.7-4.8c1.3,0,2.5,0.8,2.5,2.7v28.5h5.5V22.1
		C196.4,18.2,193.7,15.4,189.8,15.4z"/>
	<polygon fill="#724817" points="224.3,33.2 231.7,15.7 225.8,15.7 220.8,28.7 215.9,15.7 210,15.7 217.5,33.2 209.8,51.5
		215.7,51.5 220.8,37.6 226,51.5 231.9,51.5 	"/>
</g>
</svg>
